<svg width="22" height="20" viewBox="0 0 22 20" fill="none" xmlns="http://www.w3.org/2000/svg">
<path d="M6.26703 9.10776C6.05889 8.8962 5.94278 8.61097 5.94399 8.31419C5.9452 8.01741 6.06363 7.73313 6.27348 7.52327C6.48334 7.31342 6.76762 7.19498 7.0644 7.19378C7.36118 7.19257 7.64641 7.30868 7.85797 7.51682L9.875 9.53376V1.74707C9.875 1.4487 9.99353 1.16255 10.2045 0.951575C10.4155 0.740597 10.7016 0.62207 11 0.62207C11.2984 0.62207 11.5845 0.740597 11.7955 0.951575C12.0065 1.16255 12.125 1.4487 12.125 1.74707V9.53376L14.142 7.51682C14.3536 7.30868 14.6388 7.19257 14.9356 7.19378C15.2324 7.19498 15.5167 7.31342 15.7265 7.52327C15.9364 7.73313 16.0548 8.01741 16.056 8.31419C16.0572 8.61097 15.9411 8.8962 15.733 9.10776L11.7955 13.0453C11.5845 13.2562 11.2984 13.3747 11 13.3747C10.7016 13.3747 10.4155 13.2562 10.2045 13.0453L6.26703 9.10776ZM20 9.62479C19.7016 9.62479 19.4155 9.74332 19.2045 9.95429C18.9935 10.1653 18.875 10.4514 18.875 10.7498V17.1248H3.125V10.7498C3.125 10.4514 3.00647 10.1653 2.7955 9.95429C2.58452 9.74332 2.29837 9.62479 2 9.62479C1.70163 9.62479 1.41548 9.74332 1.2045 9.95429C0.993526 10.1653 0.875 10.4514 0.875 10.7498V17.4998C0.875546 17.9969 1.07327 18.4735 1.42478 18.825C1.77629 19.1765 2.25289 19.3742 2.75 19.3748H19.25C19.7471 19.3742 20.2237 19.1765 20.5752 18.825C20.9267 18.4735 21.1245 17.9969 21.125 17.4998V10.7498C21.125 10.4514 21.0065 10.1653 20.7955 9.95429C20.5845 9.74332 20.2984 9.62479 20 9.62479Z" fill="#EBEBF5" fill-opacity="0.6"/>
</svg>
