<svg width="24" height="16" viewBox="0 0 24 16" fill="none" xmlns="http://www.w3.org/2000/svg">
<path d="M15.613 14.0735C15.6921 14.1859 15.7389 14.3178 15.7481 14.4548C15.7574 14.5919 15.7288 14.7289 15.6655 14.8508C15.6022 14.9728 15.5067 15.075 15.3893 15.1463C15.2719 15.2176 15.1371 15.2554 14.9997 15.2553L1.49936 15.2559C1.36198 15.2559 1.22723 15.2182 1.10982 15.1469C0.992413 15.0755 0.896854 14.9733 0.833572 14.8514C0.77029 14.7294 0.741717 14.5925 0.750971 14.4554C0.760225 14.3183 0.806951 14.1864 0.886049 14.0741C1.93932 12.5795 3.42192 11.4404 5.13733 10.8076C4.13104 10.1391 3.36668 9.16448 2.95738 8.02787C2.54807 6.89125 2.51557 5.65306 2.86469 4.49654C3.2138 3.34001 3.92597 2.32661 4.89581 1.60631C5.86565 0.886002 7.04162 0.49707 8.24969 0.49707C9.45776 0.49707 10.6337 0.886002 11.6036 1.60631C12.5734 2.32661 13.2856 3.34001 13.6347 4.49654C13.9838 5.65306 13.9513 6.89125 13.542 8.02787C13.1327 9.16448 12.3683 10.1391 11.362 10.8076C13.0772 11.4403 14.5597 12.5793 15.613 14.0735H15.613ZM23.2557 14.0735C22.2025 12.5792 20.72 11.4403 19.0047 10.8076C20.1201 10.0653 20.9339 8.94931 21.2997 7.66043C21.6655 6.37155 21.5592 4.99443 21 3.77693C20.4408 2.55944 19.4654 1.58151 18.2493 1.01918C17.0333 0.456837 15.6565 0.347013 14.3666 0.709469C14.2496 0.742409 14.1422 0.803332 14.0539 0.886986C13.9656 0.970639 13.899 1.07451 13.8598 1.18965C13.8206 1.30479 13.81 1.42774 13.8288 1.5479C13.8477 1.66806 13.8956 1.78182 13.9682 1.87938C14.816 3.01826 15.3034 4.3849 15.3675 5.80325C15.4317 7.22159 15.0697 8.62666 14.3282 9.83744C14.2303 9.99712 14.1957 10.1877 14.2311 10.3716C14.2666 10.5555 14.3696 10.7195 14.5199 10.8313C14.8043 11.0429 15.0778 11.2687 15.3396 11.5077C15.3532 11.5224 15.3668 11.537 15.3818 11.5508C16.3828 12.4762 17.194 13.5877 17.7703 14.8232C17.8307 14.9525 17.9267 15.0619 18.0471 15.1385C18.1675 15.2151 18.3073 15.2558 18.45 15.2558L22.6425 15.2553C22.7799 15.2553 22.9146 15.2176 23.032 15.1462C23.1494 15.0749 23.2449 14.9727 23.3082 14.8507C23.3714 14.7288 23.4 14.5918 23.3907 14.4548C23.3815 14.3177 23.3347 14.1858 23.2556 14.0735H23.2557Z" fill="#EBEBF5" fill-opacity="0.6"/>
</svg>
