<svg width="18" height="19" viewBox="0 0 18 19" fill="none" xmlns="http://www.w3.org/2000/svg">
<path d="M18 8.83189V17.5C18 17.8978 17.842 18.2794 17.5607 18.5607C17.2794 18.842 16.8978 19 16.5 19H16.4998L11.9993 18.9993C11.8004 18.9992 11.6097 18.9202 11.4691 18.7796C11.3284 18.6389 11.2494 18.4482 11.2494 18.2493V12.2493H6.74944V18.2493C6.74944 18.4482 6.67043 18.6389 6.5298 18.7796C6.38917 18.9202 6.19843 18.9992 5.99953 18.9993L1.50019 18.9999C1.30319 18.9999 1.10811 18.9612 0.926105 18.8858C0.744095 18.8104 0.578714 18.6999 0.439406 18.5606C0.300099 18.4214 0.189593 18.256 0.114199 18.074C0.038805 17.892 -1.53905e-09 17.6969 0 17.4999V8.8318C0.000163436 8.62281 0.0439108 8.41616 0.128448 8.22503C0.212985 8.03391 0.336454 7.86251 0.490969 7.7218L7.99031 0.903078C8.26578 0.650753 8.62579 0.510777 8.99935 0.510742C9.37292 0.510707 9.73295 0.650617 10.0085 0.90289L17.5091 7.72189C17.6636 7.86263 17.787 8.03403 17.8716 8.22515C17.9561 8.41627 17.9998 8.62292 18 8.83189V8.83189Z" fill="#EBEBF5" fill-opacity="0.6"/>
</svg>
