<svg width="18" height="18" viewBox="0 0 18 18" fill="none" xmlns="http://www.w3.org/2000/svg">
<path d="M8.25 1.5V7.5C8.25006 7.59851 8.2307 7.69606 8.19303 7.78709C8.15537 7.87811 8.10012 7.96081 8.03047 8.03047C7.96081 8.10012 7.87811 8.15537 7.78709 8.19303C7.69606 8.2307 7.59851 8.25006 7.5 8.25H1.5C1.40149 8.25006 1.30394 8.2307 1.21291 8.19303C1.12189 8.15537 1.03919 8.10012 0.969533 8.03047C0.899876 7.96081 0.844634 7.87811 0.806965 7.78709C0.769296 7.69606 0.749939 7.59851 0.75 7.5V1.5C0.749939 1.40149 0.769296 1.30394 0.806965 1.21291C0.844634 1.12189 0.899876 1.03919 0.969533 0.969533C1.03919 0.899876 1.12189 0.844634 1.21291 0.806965C1.30394 0.769296 1.40149 0.749939 1.5 0.75H7.5C7.59851 0.749939 7.69606 0.769296 7.78709 0.806965C7.87811 0.844634 7.96081 0.899876 8.03047 0.969533C8.10012 1.03919 8.15537 1.12189 8.19303 1.21291C8.2307 1.30394 8.25006 1.40149 8.25 1.5ZM16.5 0.75H10.5C10.4015 0.749939 10.3039 0.769296 10.2129 0.806965C10.1219 0.844634 10.0392 0.899876 9.96953 0.969533C9.89988 1.03919 9.84463 1.12189 9.80696 1.21291C9.7693 1.30394 9.74994 1.40149 9.75 1.5V7.5C9.74994 7.59851 9.7693 7.69606 9.80696 7.78709C9.84463 7.87811 9.89988 7.96081 9.96953 8.03047C10.0392 8.10012 10.1219 8.15537 10.2129 8.19303C10.3039 8.2307 10.4015 8.25006 10.5 8.25H16.5C16.5985 8.25006 16.6961 8.2307 16.7871 8.19303C16.8781 8.15537 16.9608 8.10012 17.0305 8.03047C17.1001 7.96081 17.1554 7.87811 17.193 7.78709C17.2307 7.69606 17.2501 7.59851 17.25 7.5V1.5C17.2501 1.40149 17.2307 1.30394 17.193 1.21291C17.1554 1.12189 17.1001 1.03919 17.0305 0.969533C16.9608 0.899876 16.8781 0.844634 16.7871 0.806965C16.6961 0.769296 16.5985 0.749939 16.5 0.75ZM7.5 9.75H1.5C1.40149 9.74994 1.30394 9.7693 1.21291 9.80696C1.12189 9.84463 1.03919 9.89988 0.969533 9.96953C0.899876 10.0392 0.844634 10.1219 0.806965 10.2129C0.769296 10.3039 0.749939 10.4015 0.75 10.5V16.5C0.749939 16.5985 0.769296 16.6961 0.806965 16.7871C0.844634 16.8781 0.899876 16.9608 0.969533 17.0305C1.03919 17.1001 1.12189 17.1554 1.21291 17.193C1.30394 17.2307 1.40149 17.2501 1.5 17.25H7.5C7.59851 17.2501 7.69606 17.2307 7.78709 17.193C7.87811 17.1554 7.96081 17.1001 8.03047 17.0305C8.10012 16.9608 8.15537 16.8781 8.19303 16.7871C8.2307 16.6961 8.25006 16.5985 8.25 16.5V10.5C8.25006 10.4015 8.2307 10.3039 8.19303 10.2129C8.15537 10.1219 8.10012 10.0392 8.03047 9.96953C7.96081 9.89988 7.87811 9.84463 7.78709 9.80696C7.69606 9.7693 7.59851 9.74994 7.5 9.75ZM16.5 9.75H10.5C10.4015 9.74994 10.3039 9.7693 10.2129 9.80696C10.1219 9.84463 10.0392 9.89988 9.96953 9.96953C9.89988 10.0392 9.84463 10.1219 9.80696 10.2129C9.7693 10.3039 9.74994 10.4015 9.75 10.5V16.5C9.74994 16.5985 9.7693 16.6961 9.80696 16.7871C9.84463 16.8781 9.89988 16.9608 9.96953 17.0305C10.0392 17.1001 10.1219 17.1554 10.2129 17.193C10.3039 17.2307 10.4015 17.2501 10.5 17.25H16.5C16.5985 17.2501 16.6961 17.2307 16.7871 17.193C16.8781 17.1554 16.9608 17.1001 17.0305 17.0305C17.1001 16.9608 17.1554 16.8781 17.193 16.7871C17.2307 16.6961 17.2501 16.5985 17.25 16.5V10.5C17.2501 10.4015 17.2307 10.3039 17.193 10.2129C17.1554 10.1219 17.1001 10.0392 17.0305 9.96953C16.9608 9.89988 16.8781 9.84463 16.7871 9.80696C16.6961 9.7693 16.5985 9.74994 16.5 9.75Z" fill="#EBEBF5" fill-opacity="0.6"/>
</svg>
