<svg width="24" height="18" viewBox="0 0 24 18" fill="none" xmlns="http://www.w3.org/2000/svg">
<path d="M15.7501 9.00012C15.7501 9.7418 15.5302 10.4668 15.1181 11.0835C14.7061 11.7002 14.1204 12.1808 13.4352 12.4647C12.75 12.7485 11.996 12.8228 11.2685 12.6781C10.5411 12.5334 9.87292 12.1762 9.34847 11.6518C8.82402 11.1273 8.46687 10.4591 8.32218 9.73171C8.17748 9.00428 8.25174 8.25028 8.53557 7.56505C8.8194 6.87983 9.30005 6.29416 9.91673 5.88211C10.5334 5.47005 11.2584 5.25012 12.0001 5.25012C12.9943 5.25126 13.9475 5.64671 14.6505 6.34973C15.3535 7.05274 15.749 8.00591 15.7501 9.00012ZM7.75747 4.75746C7.8278 4.68797 7.8837 4.60525 7.92195 4.51408C7.9602 4.4229 7.98004 4.32506 7.98034 4.22619C7.98063 4.12731 7.96138 4.02936 7.92367 3.93795C7.88597 3.84655 7.83057 3.7635 7.76065 3.69359C7.69073 3.62368 7.60768 3.56828 7.51627 3.53059C7.42486 3.49289 7.32691 3.47364 7.22803 3.47395C7.12916 3.47425 7.03132 3.4941 6.94015 3.53236C6.84897 3.57062 6.76626 3.62653 6.69678 3.69687C5.99968 4.39293 5.44666 5.21959 5.06934 6.12958C4.69201 7.03956 4.4978 8.01501 4.4978 9.00012C4.4978 9.98523 4.69201 10.9607 5.06934 11.8707C5.44666 12.7806 5.99968 13.6073 6.69678 14.3034C6.76626 14.3737 6.84897 14.4296 6.94015 14.4679C7.03132 14.5061 7.12916 14.526 7.22803 14.5263C7.32691 14.5266 7.42486 14.5073 7.51627 14.4696C7.60768 14.432 7.69073 14.3766 7.76065 14.3066C7.83057 14.2367 7.88597 14.1537 7.92367 14.0623C7.96138 13.9709 7.98063 13.8729 7.98034 13.774C7.98004 13.6752 7.9602 13.5773 7.92195 13.4862C7.8837 13.395 7.8278 13.3123 7.75747 13.2428C7.19964 12.686 6.75709 12.0247 6.45513 11.2967C6.15318 10.5687 5.99776 9.78826 5.99776 9.00012C5.99776 8.21197 6.15318 7.43157 6.45513 6.70356C6.75709 5.97555 7.19964 5.31424 7.75747 4.75746ZM19.5001 9.00012C19.5013 8.01505 19.3078 7.03946 18.9309 6.12937C18.5539 5.21928 18.0009 4.39262 17.3036 3.69687C17.2339 3.62721 17.1512 3.57196 17.0602 3.53426C16.9693 3.49656 16.8717 3.47715 16.7732 3.47714C16.6747 3.47714 16.5772 3.49653 16.4862 3.53421C16.3952 3.5719 16.3125 3.62713 16.2429 3.69677C16.1732 3.76641 16.118 3.84909 16.0803 3.94008C16.0426 4.03108 16.0232 4.1286 16.0231 4.2271C16.0231 4.32559 16.0425 4.42312 16.0802 4.51412C16.1179 4.60512 16.1731 4.68781 16.2428 4.75746C16.8006 5.31424 17.2432 5.97555 17.5451 6.70356C17.8471 7.43157 18.0025 8.21197 18.0025 9.00012C18.0025 9.78826 17.8471 10.5687 17.5451 11.2967C17.2432 12.0247 16.8006 12.686 16.2428 13.2428C16.1035 13.3837 16.0257 13.574 16.0263 13.7722C16.027 13.9703 16.1059 14.1601 16.246 14.3002C16.3861 14.4403 16.576 14.5193 16.7741 14.5198C16.9722 14.5204 17.1625 14.4426 17.3035 14.3034C18.0008 13.6076 18.5539 12.781 18.9308 11.8709C19.3078 10.9608 19.5013 9.98519 19.5001 9.00012ZM3.01606 12.795C2.26005 11.0078 2.05506 9.03555 2.42738 7.13108C2.79969 5.22661 3.73234 3.47674 5.10575 2.10584C5.2464 1.96518 5.32542 1.77441 5.32542 1.57549C5.32542 1.37657 5.2464 1.1858 5.10575 1.04515C4.96509 0.904492 4.77432 0.825473 4.5754 0.825473C4.37649 0.825473 4.18571 0.904492 4.04506 1.04515C2.99934 2.08922 2.16974 3.32922 1.60371 4.69422C1.03769 6.05921 0.746338 7.52242 0.746338 9.00012C0.746338 10.4778 1.03769 11.941 1.60371 13.306C2.16974 14.671 2.99934 15.911 4.04506 16.9551C4.18571 17.0958 4.37649 17.1748 4.57542 17.1748C4.77434 17.1748 4.96513 17.0958 5.10579 16.9551C5.24646 16.8145 5.32549 16.6237 5.3255 16.4248C5.32551 16.2258 5.2465 16.0351 5.10584 15.8944C4.21522 15.0063 3.5055 13.9537 3.01606 12.795ZM22.3657 4.62096C21.8012 3.28426 20.9825 2.06986 19.9552 1.04515C19.8855 0.975496 19.8029 0.920244 19.7119 0.882547C19.6209 0.844849 19.5233 0.825444 19.4248 0.825439C19.3263 0.825435 19.2288 0.844832 19.1378 0.882521C19.0468 0.920211 18.9641 0.975456 18.8945 1.0451C18.8248 1.11475 18.7695 1.19743 18.7318 1.28843C18.6942 1.37943 18.6747 1.47696 18.6747 1.57546C18.6747 1.67396 18.6941 1.77149 18.7318 1.86249C18.7695 1.9535 18.8248 2.03618 18.8944 2.10584C19.8008 3.01061 20.5199 4.08525 21.0106 5.26825C21.5012 6.45126 21.7538 7.7194 21.7538 9.00012C21.7538 10.2808 21.5012 11.549 21.0106 12.732C20.5199 13.915 19.8008 14.9896 18.8944 15.8944C18.7537 16.0351 18.6747 16.2258 18.6747 16.4248C18.6747 16.6237 18.7538 16.8145 18.8945 16.9551C19.0351 17.0958 19.2259 17.1748 19.4248 17.1748C19.6238 17.1748 19.8145 17.0958 19.9552 16.9551C21.5374 15.3716 22.6117 13.3524 23.041 11.1555C23.4704 8.95858 23.2353 6.68355 22.3657 4.62087V4.62096Z" fill="#EBEBF5" fill-opacity="0.6"/>
</svg>
