<svg width="18" height="21" viewBox="0 0 18 21" fill="none" xmlns="http://www.w3.org/2000/svg">
<path d="M17.7008 14.4944C17.1445 13.5366 16.4811 11.7192 16.4811 8.5V7.83475C16.4811 3.68294 13.1505 0.280563 9.05648 0.250188L8.9993 0.25C7.01273 0.252584 5.10855 1.0442 3.70564 2.45072C2.30273 3.85723 1.516 5.76344 1.51851 7.75V8.5C1.51851 11.719 0.854858 13.5363 0.298265 14.494C0.165325 14.7218 0.0947865 14.9805 0.0937613 15.2443C0.0927362 15.508 0.161261 15.7673 0.292426 15.9961C0.423591 16.2249 0.612759 16.415 0.840857 16.5474C1.06896 16.6798 1.32792 16.7496 1.59164 16.75H5.24948C5.24948 17.7446 5.64457 18.6984 6.34783 19.4016C7.05109 20.1049 8.00492 20.5 8.99948 20.5C9.99405 20.5 10.9479 20.1049 11.6511 19.4016C12.3544 18.6984 12.7495 17.7446 12.7495 16.75H16.4073C16.671 16.7497 16.9299 16.6798 17.158 16.5475C17.3861 16.4151 17.5753 16.225 17.7064 15.9963C17.8376 15.7675 17.9061 15.5083 17.9052 15.2446C17.9042 14.9809 17.8337 14.7221 17.7008 14.4944ZM8.99948 19C8.40295 18.9993 7.83105 18.7621 7.40923 18.3403C6.98742 17.9184 6.75015 17.3465 6.74948 16.75H11.2495C11.2488 17.3465 11.0115 17.9184 10.5897 18.3403C10.1679 18.7621 9.59601 18.9993 8.99948 19Z" fill="#EBEBF5" fill-opacity="0.6"/>
</svg>
