<svg width="14" height="14" viewBox="0 0 14 14" fill="none" xmlns="http://www.w3.org/2000/svg">
<path d="M13.3535 12.6465L10.6522 9.94507C11.6062 8.80895 12.0847 7.34842 11.9881 5.86805C11.8915 4.38767 11.2271 3.00174 10.1335 1.99927C9.03995 0.996807 7.6016 0.455193 6.11843 0.48738C4.63525 0.519566 3.22175 1.12307 2.1727 2.17203C1.12364 3.22099 0.520013 4.63444 0.487696 6.11761C0.455379 7.60079 0.996865 9.03918 1.99924 10.1328C3.00161 11.2265 4.38748 11.891 5.86784 11.9878C7.34821 12.0845 8.80878 11.6061 9.94499 10.6522L12.6464 13.3536C12.7402 13.4474 12.8674 13.5001 13 13.5001C13.1326 13.5001 13.2598 13.4474 13.3535 13.3536C13.4473 13.2599 13.5 13.1327 13.5 13.0001C13.5 12.8675 13.4473 12.7403 13.3535 12.6465ZM1.50036 6.25001C1.50036 5.31055 1.77894 4.39218 2.30088 3.61105C2.82282 2.82992 3.56467 2.2211 4.43261 1.86158C5.30056 1.50206 6.25563 1.408 7.17704 1.59128C8.09845 1.77456 8.94482 2.22695 9.60912 2.89125C10.2734 3.55555 10.7258 4.40192 10.9091 5.32333C11.0924 6.24474 10.9983 7.19981 10.6388 8.06775C10.2793 8.9357 9.67045 9.67755 8.88932 10.1995C8.10819 10.7214 7.18982 11 6.25036 11C4.99102 10.9986 3.78366 10.4977 2.89318 9.60719C2.00269 8.7167 1.50178 7.50935 1.50036 6.25001Z" fill="#EBEBF5" fill-opacity="0.6"/>
</svg>
