<svg width="22" height="22" viewBox="0 0 22 22" fill="none" xmlns="http://www.w3.org/2000/svg">
<path d="M20.8402 12.7835L20.0001 11.523V10.4771L20.8395 9.21808C20.9635 9.03216 21.0453 8.82129 21.0789 8.60034C21.1126 8.37939 21.0974 8.15375 21.0343 7.93933C20.8377 7.29196 20.5787 6.66523 20.2609 6.06798C20.1548 5.87155 20.0065 5.70108 19.8267 5.56885C19.6468 5.43661 19.4399 5.34591 19.2208 5.30326L17.734 5.00598L16.9943 4.2662L16.697 2.77933C16.6543 2.55993 16.5635 2.35274 16.431 2.17275C16.2985 1.99276 16.1277 1.84447 15.9308 1.73861C15.3341 1.42143 14.7081 1.16266 14.0616 0.96592C13.8474 0.901835 13.6216 0.886 13.4005 0.919554C13.1794 0.953108 12.9685 1.03522 12.7829 1.15998L11.5231 2.00008H10.4772L9.21664 1.16008C9.03143 1.03507 8.82074 0.952797 8.59982 0.919218C8.37891 0.885639 8.15329 0.901591 7.9393 0.96592C7.29196 1.16249 6.66526 1.42152 6.06805 1.73936C5.87135 1.84503 5.70066 1.99319 5.56838 2.17308C5.4361 2.35297 5.34556 2.56007 5.30333 2.77933L5.00595 4.2662L4.26626 5.00589L2.77789 5.30326C2.55872 5.34575 2.35176 5.43647 2.172 5.56885C1.99224 5.70123 1.84419 5.87195 1.73858 6.06864C1.42111 6.66557 1.16209 7.2918 0.96514 7.93858C0.900886 8.1527 0.884964 8.37841 0.918523 8.59943C0.952083 8.82046 1.03429 9.03127 1.1592 9.21667L2.00005 10.4771V11.523L1.15845 12.7842C1.0338 12.9696 0.951804 13.1803 0.918377 13.4012C0.88495 13.6221 0.900921 13.8476 0.96514 14.0616C1.16184 14.708 1.42087 15.3337 1.73858 15.93C1.84396 16.1272 1.99201 16.2983 2.17194 16.431C2.35187 16.5637 2.55914 16.6545 2.77864 16.6969L4.26617 16.9942L5.00586 17.734L5.30323 19.2201C5.34499 19.4397 5.43533 19.6472 5.56764 19.8275C5.69996 20.0077 5.8709 20.156 6.06795 20.2616C6.66465 20.5791 7.29089 20.8376 7.9378 21.0335C8.15181 21.0991 8.37784 21.1158 8.59918 21.0824C8.82051 21.0489 9.0315 20.9661 9.21655 20.8402L10.4772 20.0001H11.5231L12.7829 20.8401C13.0328 21.0081 13.3269 21.0983 13.628 21.0995C13.775 21.0993 13.9211 21.0773 14.0616 21.0342C14.708 20.8377 15.3337 20.5789 15.9301 20.2615C16.1273 20.1563 16.2985 20.0083 16.431 19.8284C16.5636 19.6484 16.6542 19.441 16.6962 19.2215L16.9936 17.734L17.734 16.9943L19.2215 16.6969C19.4408 16.654 19.6478 16.5631 19.8276 16.4306C20.0075 16.2981 20.1557 16.1274 20.2616 15.9308C20.579 15.3342 20.8378 14.7082 21.0343 14.0616C21.0974 13.8473 21.1127 13.6218 21.0792 13.401C21.0457 13.1802 20.9641 12.9694 20.8402 12.7835ZM10.9998 15.5002C10.1097 15.5002 9.23972 15.2363 8.4997 14.7418C7.75968 14.2473 7.1829 13.5445 6.84231 12.7222C6.50171 11.9 6.4126 10.9952 6.58623 10.1223C6.75986 9.24935 7.18845 8.44753 7.81778 7.81819C8.44712 7.18885 9.24894 6.76027 10.1219 6.58664C10.9948 6.413 11.8996 6.50212 12.7218 6.84271C13.5441 7.18331 14.2469 7.76008 14.7414 8.5001C15.2358 9.24013 15.4998 10.1102 15.4998 11.0002C15.4998 12.1936 15.0257 13.3382 14.1817 14.1822C13.3378 15.0261 12.1932 15.5002 10.9998 15.5002Z" fill="#EBEBF5" fill-opacity="0.6"/>
</svg>
