<svg width="18" height="22" viewBox="0 0 18 22" fill="none" xmlns="http://www.w3.org/2000/svg">
<path d="M17.25 13.2499C17.25 15.438 16.3808 17.5364 14.8336 19.0836C13.2865 20.6308 11.188 21.4999 9 21.4999C6.81196 21.4999 4.71354 20.6308 3.16637 19.0836C1.61919 17.5364 0.75 15.438 0.75 13.2499C0.75 11.0734 1.47028 8.83967 2.89078 6.61085C2.94674 6.52306 3.02037 6.44788 3.10698 6.39009C3.19358 6.33231 3.29127 6.29319 3.39383 6.27523C3.49638 6.25726 3.60155 6.26085 3.70264 6.28575C3.80373 6.31066 3.89853 6.35634 3.981 6.41989L6.39553 8.28007L9.04509 0.993636C9.08551 0.882522 9.15162 0.782536 9.23804 0.701839C9.32446 0.621142 9.42873 0.56202 9.54235 0.529296C9.65597 0.496573 9.77571 0.491175 9.89181 0.513545C10.0079 0.535914 10.1171 0.585416 10.2104 0.658011C10.498 0.881418 17.25 6.21401 17.25 13.2499Z" fill="#EBEBF5" fill-opacity="0.6"/>
</svg>
