<svg width="32" height="32" viewBox="0 0 32 32" fill="none" xmlns="http://www.w3.org/2000/svg">
<path d="M6.66665 10.6667C8.08113 10.6667 9.43769 11.2286 10.4379 12.2288C11.4381 13.229 12 14.5855 12 16C12 17.4145 11.4381 18.771 10.4379 19.7712C9.43769 20.7714 8.08113 21.3333 6.66665 21.3333C5.25216 21.3333 3.8956 20.7714 2.89541 19.7712C1.89522 18.771 1.33331 17.4145 1.33331 16C1.33331 14.5855 1.89522 13.229 2.89541 12.2288C3.8956 11.2286 5.25216 10.6667 6.66665 10.6667ZM16 1.33333C17.4145 1.33333 18.771 1.89523 19.7712 2.89543C20.7714 3.89562 21.3333 5.25217 21.3333 6.66666C21.3333 8.08115 20.7714 9.4377 19.7712 10.4379C18.771 11.4381 17.4145 12 16 12C14.5855 12 13.2289 11.4381 12.2287 10.4379C11.2285 9.4377 10.6666 8.08115 10.6666 6.66666C10.6666 5.25217 11.2285 3.89562 12.2287 2.89543C13.2289 1.89523 14.5855 1.33333 16 1.33333ZM16 20C17.4145 20 18.771 20.5619 19.7712 21.5621C20.7714 22.5623 21.3333 23.9188 21.3333 25.3333C21.3333 26.7478 20.7714 28.1044 19.7712 29.1046C18.771 30.1048 17.4145 30.6667 16 30.6667C14.5855 30.6667 13.2289 30.1048 12.2287 29.1046C11.2285 28.1044 10.6666 26.7478 10.6666 25.3333C10.6666 23.9188 11.2285 22.5623 12.2287 21.5621C13.2289 20.5619 14.5855 20 16 20ZM25.3333 10.6667C26.7478 10.6667 28.1044 11.2286 29.1045 12.2288C30.1047 13.229 30.6666 14.5855 30.6666 16C30.6666 17.4145 30.1047 18.771 29.1045 19.7712C28.1044 20.7714 26.7478 21.3333 25.3333 21.3333C23.9188 21.3333 22.5623 20.7714 21.5621 19.7712C20.5619 18.771 20 17.4145 20 16C20 14.5855 20.5619 13.229 21.5621 12.2288C22.5623 11.2286 23.9188 10.6667 25.3333 10.6667Z" fill="url(#paint0_linear)"/>
<defs>
<linearGradient id="paint0_linear" x1="16" y1="1.33333" x2="16" y2="30.6667" gradientUnits="userSpaceOnUse">
<stop stop-color="#125CCF"/>
<stop offset="0.9375" stop-color="#01C7FC"/>
<stop offset="1" stop-color="#74A7FF"/>
</linearGradient>
</defs>
</svg>
